<svg width="640" height="320" viewBox="0 0 640 320" fill="none" xmlns="http://www.w3.org/2000/svg">
  <defs>
    <linearGradient id="bg" x1="80" y1="40" x2="560" y2="280" gradientUnits="userSpaceOnUse">
      <stop stop-color="#FFF8FB"/>
      <stop offset="1" stop-color="#FFE4EF"/>
    </linearGradient>
    <linearGradient id="awning" x1="180" y1="96" x2="460" y2="168" gradientUnits="userSpaceOnUse">
      <stop stop-color="#FFB5CD"/>
      <stop offset="1" stop-color="#FF7DA8"/>
    </linearGradient>
    <linearGradient id="wall" x1="170" y1="118" x2="470" y2="260" gradientUnits="userSpaceOnUse">
      <stop stop-color="#FFFDFE"/>
      <stop offset="1" stop-color="#FFF0F6"/>
    </linearGradient>
    <linearGradient id="roof" x1="194" y1="58" x2="446" y2="104" gradientUnits="userSpaceOnUse">
      <stop stop-color="#7E4A61"/>
      <stop offset="1" stop-color="#5A2D43"/>
    </linearGradient>
    <linearGradient id="window" x1="210" y1="140" x2="300" y2="220" gradientUnits="userSpaceOnUse">
      <stop stop-color="#DFF6FF"/>
      <stop offset="1" stop-color="#B7E6FF"/>
    </linearGradient>
    <linearGradient id="door" x1="356" y1="138" x2="418" y2="244" gradientUnits="userSpaceOnUse">
      <stop stop-color="#FFDBA8"/>
      <stop offset="1" stop-color="#E5AB67"/>
    </linearGradient>
  </defs>

  <rect x="8" y="8" width="624" height="304" rx="36" fill="url(#bg)"/>
  <circle cx="92" cy="70" r="22" fill="#FFD9E6"/>
  <circle cx="552" cy="244" r="18" fill="#FFE2EC"/>
  <circle cx="515" cy="68" r="12" fill="#FFF0F6"/>

  <ellipse cx="320" cy="272" rx="160" ry="20" fill="#F3C5D7" fill-opacity="0.5"/>

  <path d="M194 86H446L430 56H210L194 86Z" fill="url(#roof)"/>
  <rect x="182" y="84" width="276" height="24" rx="12" fill="#6A374E"/>

  <rect x="170" y="108" width="300" height="148" rx="20" fill="url(#wall)" stroke="#F5C4D6" stroke-width="4"/>
  <rect x="184" y="120" width="272" height="42" rx="18" fill="url(#awning)"/>
  <path d="M184 152H456V172C456 178.627 450.627 184 444 184H196C189.373 184 184 178.627 184 172V152Z" fill="#FFF3F8"/>
  <path d="M220 120H250V184H220V120Z" fill="#FFF3F8"/>
  <path d="M290 120H320V184H290V120Z" fill="#FFF3F8"/>
  <path d="M360 120H390V184H360V120Z" fill="#FFF3F8"/>

  <rect x="206" y="142" width="104" height="82" rx="14" fill="url(#window)" stroke="#F3BCD0" stroke-width="4"/>
  <path d="M258 146V220" stroke="#FFF9FC" stroke-width="6" stroke-linecap="round"/>
  <path d="M214 182H302" stroke="#FFF9FC" stroke-width="6" stroke-linecap="round"/>

  <rect x="350" y="138" width="72" height="118" rx="16" fill="url(#door)" stroke="#DFA165" stroke-width="4"/>
  <circle cx="404" cy="198" r="5" fill="#8B5A2B"/>

  <rect x="242" y="88" width="156" height="30" rx="15" fill="#FFF7FB" stroke="#F4C1D5" stroke-width="3"/>
  <text x="320" y="109" text-anchor="middle" font-family="Fredoka, Poppins, sans-serif" font-size="22" font-weight="700" fill="#A14D73">Cake Shop</text>

  <g>
    <rect x="98" y="190" width="82" height="18" rx="9" fill="#D98BAA"/>
    <rect x="108" y="168" width="62" height="26" rx="13" fill="#FFF2F7"/>
    <rect x="120" y="152" width="38" height="20" rx="10" fill="#FF9EC3"/>
    <circle cx="138" cy="144" r="8" fill="#FF5E8F"/>
  </g>

  <g>
    <rect x="466" y="194" width="84" height="18" rx="9" fill="#D98BAA"/>
    <path d="M484 194C484 174 500 160 520 160C540 160 556 174 556 194H484Z" fill="#FFE5A8"/>
    <path d="M494 194C494 178 505 170 520 170C535 170 546 178 546 194H494Z" fill="#FFF6FB"/>
    <circle cx="520" cy="168" r="7" fill="#83BE63"/>
  </g>
</svg>
